<?xml version="1.0" encoding="UTF-8"?>
<svg id="Layer_1" data-name="Layer 1" xmlns="http://www.w3.org/2000/svg" viewBox="0 0 4775.62 4425.06">
  <defs>
    <style>
      .cls-1, .cls-2 {
        stroke-width: 0px;
      }

      .cls-2 {
        fill: #f7ec13;
      }
    </style>
  </defs>
  <g>
    <polygon class="cls-1" points="1002.37 1157.22 2771.08 1157.22 2515.63 1599.88 1768.9 1599.88 2142.07 2246.37 1886.62 2689.03 1002.37 1157.22"/>
    <polygon class="cls-1" points="0 578.61 1179.33 578.61 1434.59 1021.06 766.54 1021.06 1886.62 2961.36 2220.75 2382.54 2476.19 2825.19 1886.62 3846.45 0 578.61"/>
    <polygon class="cls-1" points="3675.15 1021.06 4009.07 442.45 1768.7 442.45 2102.83 1021.06 1591.74 1021.06 1002.37 0 4775.62 0 4186.24 1021.06 3675.15 1021.06"/>
    <polygon class="cls-1" points="2633.54 1667.96 3006.9 1021.06 2259.99 1021.06 2004.54 578.61 3773.25 578.61 2888.99 2110.41 2633.54 1667.96"/>
    <polygon class="cls-1" points="2299.42 3403.81 2554.87 2961.35 2889 3539.96 4009.08 1599.88 3340.84 1599.88 3596.47 1157.22 4775.62 1157.22 2888.99 4425.06 2299.42 3403.81"/>
  </g>
  <polygon class="cls-2" points="2004.73 1737.43 2515.63 1737.43 2888.99 2384.11 3262.36 1737.43 3773.24 1737.43 2888.99 3269.03 2004.73 1737.43"/>
</svg>